<mxfile host="app.diagrams.net" modified="2021-04-07T18:50:38.284Z" agent="5.0 (Windows NT 10.0; Win64; x64) AppleWebKit/537.36 (KHTML, like Gecko) Chrome/89.0.4389.114 Safari/537.36" etag="WBPBH_NwJ1Olj0F7kKRp" version="14.4.9" type="github">
  <diagram id="U9M_Yq1_pcVsSQhX2Ehp" name="Page-1">
    <mxGraphModel dx="2333" dy="829" grid="1" gridSize="10" guides="1" tooltips="1" connect="1" arrows="1" fold="1" page="1" pageScale="1" pageWidth="850" pageHeight="1100" math="0" shadow="0">
      <root>
        <mxCell id="0" />
        <mxCell id="1" parent="0" />
        <mxCell id="2yLdPPzyw9FvhpXeGLOf-28" value="" style="shape=folder;spacingTop=10;tabWidth=100;tabHeight=25;tabPosition=left;html=1;dashed=1;labelBackgroundColor=none;" parent="1" vertex="1">
          <mxGeometry x="-425" y="40" width="250" height="520" as="geometry" />
        </mxCell>
        <mxCell id="2yLdPPzyw9FvhpXeGLOf-30" value="" style="shape=folder;spacingTop=10;tabWidth=100;tabHeight=25;tabPosition=left;html=1;dashed=1;labelBackgroundColor=none;" parent="1" vertex="1">
          <mxGeometry x="740" y="50" width="400" height="505" as="geometry" />
        </mxCell>
        <mxCell id="2yLdPPzyw9FvhpXeGLOf-26" value="" style="shape=folder;spacingTop=10;tabWidth=100;tabHeight=25;tabPosition=left;html=1;dashed=1;labelBackgroundColor=none;" parent="1" vertex="1">
          <mxGeometry x="-150" y="25" width="860" height="545" as="geometry" />
        </mxCell>
        <mxCell id="ygKgCBzIEPj40k8lXBeH-2" value="Drone controller" style="html=1;outlineConnect=0;whiteSpace=wrap;fillColor=#ffff99;shape=mxgraph.archimate3.application;appType=actor;archiType=square;" parent="1" vertex="1">
          <mxGeometry x="540" y="75" width="150" height="75" as="geometry" />
        </mxCell>
        <mxCell id="ygKgCBzIEPj40k8lXBeH-8" value="" style="edgeStyle=elbowEdgeStyle;html=1;endArrow=open;elbow=vertical;endFill=1;entryX=0.5;entryY=1;entryDx=0;entryDy=0;entryPerimeter=0;exitX=0.5;exitY=0;exitDx=0;exitDy=0;exitPerimeter=0;" parent="1" source="UU45sLERAMf2Hrp41M-O-1" target="ygKgCBzIEPj40k8lXBeH-2" edge="1">
          <mxGeometry width="160" relative="1" as="geometry">
            <mxPoint x="535" y="160" as="sourcePoint" />
            <mxPoint x="500" y="300" as="targetPoint" />
            <Array as="points">
              <mxPoint x="630" y="260" />
              <mxPoint x="600" y="280" />
            </Array>
          </mxGeometry>
        </mxCell>
        <mxCell id="ygKgCBzIEPj40k8lXBeH-21" value="Arduino/shield&lt;br&gt;LoraWan/BT" style="html=1;outlineConnect=0;whiteSpace=wrap;fillColor=#AFFFAF;shape=mxgraph.archimate3.tech;techType=device;" parent="1" vertex="1">
          <mxGeometry x="-140" y="410.63" width="150" height="75" as="geometry" />
        </mxCell>
        <mxCell id="ygKgCBzIEPj40k8lXBeH-26" value="LoRa P2P" style="html=1;outlineConnect=0;whiteSpace=wrap;fillColor=#AFFFAF;shape=mxgraph.archimate3.application;appType=netw;archiType=square;" parent="1" vertex="1">
          <mxGeometry x="730" y="438.75" width="130" height="62.5" as="geometry" />
        </mxCell>
        <mxCell id="ygKgCBzIEPj40k8lXBeH-27" value="" style="edgeStyle=elbowEdgeStyle;html=1;endArrow=none;elbow=vertical;entryX=0;entryY=0.5;entryDx=0;entryDy=0;entryPerimeter=0;exitX=1;exitY=0.25;exitDx=0;exitDy=0;exitPerimeter=0;" parent="1" source="ygKgCBzIEPj40k8lXBeH-26" target="2Lq3Pt6WfmT5US5sTp1G-1" edge="1">
          <mxGeometry width="160" relative="1" as="geometry">
            <mxPoint x="920" y="461.25" as="sourcePoint" />
            <mxPoint x="974.9699999999998" y="390.03499999999997" as="targetPoint" />
          </mxGeometry>
        </mxCell>
        <mxCell id="ygKgCBzIEPj40k8lXBeH-29" value="Server" style="html=1;outlineConnect=0;whiteSpace=wrap;fillColor=#AFFFAF;shape=mxgraph.archimate3.tech;techType=device;labelPosition=center;verticalLabelPosition=middle;align=center;verticalAlign=bottom;" parent="1" vertex="1">
          <mxGeometry x="-410" y="397.5" width="170" height="112.5" as="geometry" />
        </mxCell>
        <mxCell id="ygKgCBzIEPj40k8lXBeH-30" value="RESTful API&lt;br&gt;Swagger" style="html=1;outlineConnect=0;whiteSpace=wrap;fillColor=#99ffff;shape=mxgraph.archimate3.application;appType=comp;archiType=square;" parent="1" vertex="1">
          <mxGeometry x="-400" y="190" width="150" height="75" as="geometry" />
        </mxCell>
        <mxCell id="ygKgCBzIEPj40k8lXBeH-31" value="" style="edgeStyle=elbowEdgeStyle;html=1;endArrow=block;elbow=vertical;endFill=0;dashed=1;exitX=0.5;exitY=0;exitDx=0;exitDy=0;exitPerimeter=0;" parent="1" source="ygKgCBzIEPj40k8lXBeH-29" target="ygKgCBzIEPj40k8lXBeH-30" edge="1">
          <mxGeometry width="160" relative="1" as="geometry">
            <mxPoint x="140" y="280" as="sourcePoint" />
            <mxPoint x="300" y="280" as="targetPoint" />
          </mxGeometry>
        </mxCell>
        <mxCell id="ygKgCBzIEPj40k8lXBeH-33" value="Mission computer&lt;br&gt;(MAVSDK)" style="html=1;outlineConnect=0;whiteSpace=wrap;fillColor=#99ffff;shape=mxgraph.archimate3.application;appType=comp;archiType=square;" parent="1" vertex="1">
          <mxGeometry x="760" y="210" width="150" height="75" as="geometry" />
        </mxCell>
        <mxCell id="ygKgCBzIEPj40k8lXBeH-34" value="" style="edgeStyle=elbowEdgeStyle;html=1;endArrow=block;elbow=vertical;endFill=0;dashed=1;exitX=0.25;exitY=0;exitDx=0;exitDy=0;exitPerimeter=0;" parent="1" source="2Lq3Pt6WfmT5US5sTp1G-1" target="ygKgCBzIEPj40k8lXBeH-33" edge="1">
          <mxGeometry width="160" relative="1" as="geometry">
            <mxPoint x="1070" y="385" as="sourcePoint" />
            <mxPoint x="720" y="280" as="targetPoint" />
            <Array as="points">
              <mxPoint x="1043" y="340" />
              <mxPoint x="1075" y="370" />
              <mxPoint x="1075" y="300" />
              <mxPoint x="1100" y="320" />
            </Array>
          </mxGeometry>
        </mxCell>
        <mxCell id="2yLdPPzyw9FvhpXeGLOf-3" value="BlueTooth" style="html=1;outlineConnect=0;whiteSpace=wrap;fillColor=#AFFFAF;shape=mxgraph.archimate3.application;appType=netw;archiType=square;" parent="1" vertex="1">
          <mxGeometry x="-60" y="311.25" width="90" height="53.75" as="geometry" />
        </mxCell>
        <mxCell id="2yLdPPzyw9FvhpXeGLOf-4" value="Laptop (data collector)" style="html=1;outlineConnect=0;whiteSpace=wrap;fillColor=#AFFFAF;shape=mxgraph.archimate3.tech;techType=device;verticalAlign=bottom;" parent="1" vertex="1">
          <mxGeometry x="200" y="430" width="210" height="120" as="geometry" />
        </mxCell>
        <mxCell id="2yLdPPzyw9FvhpXeGLOf-5" value="&lt;span&gt;Ubuntu 12.4&lt;/span&gt;" style="html=1;outlineConnect=0;whiteSpace=wrap;fillColor=#AFFFAF;shape=mxgraph.archimate3.application;appType=sysSw;archiType=square;labelPosition=center;verticalLabelPosition=middle;align=center;verticalAlign=bottom;" parent="1" vertex="1">
          <mxGeometry x="223.75" y="450" width="150" height="80" as="geometry" />
        </mxCell>
        <mxCell id="2yLdPPzyw9FvhpXeGLOf-12" value="" style="edgeStyle=elbowEdgeStyle;html=1;endArrow=none;elbow=vertical;entryX=1;entryY=0.5;entryDx=0;entryDy=0;entryPerimeter=0;" parent="1" target="2yLdPPzyw9FvhpXeGLOf-3" edge="1">
          <mxGeometry width="160" relative="1" as="geometry">
            <mxPoint x="100" y="420" as="sourcePoint" />
            <mxPoint x="350" y="300" as="targetPoint" />
            <Array as="points">
              <mxPoint x="70" y="350" />
            </Array>
          </mxGeometry>
        </mxCell>
        <mxCell id="2yLdPPzyw9FvhpXeGLOf-13" value="LoRaWAN" style="html=1;outlineConnect=0;whiteSpace=wrap;fillColor=#AFFFAF;shape=mxgraph.archimate3.application;appType=netw;archiType=square;" parent="1" vertex="1">
          <mxGeometry x="-240" y="330" width="120" height="50" as="geometry" />
        </mxCell>
        <mxCell id="2yLdPPzyw9FvhpXeGLOf-14" value="" style="edgeStyle=elbowEdgeStyle;html=1;endArrow=none;elbow=vertical;exitX=1;exitY=0.5;exitDx=0;exitDy=0;exitPerimeter=0;entryX=0.25;entryY=0;entryDx=0;entryDy=0;entryPerimeter=0;" parent="1" source="2yLdPPzyw9FvhpXeGLOf-13" target="ygKgCBzIEPj40k8lXBeH-21" edge="1">
          <mxGeometry width="160" relative="1" as="geometry">
            <mxPoint x="-110" y="360" as="sourcePoint" />
            <mxPoint y="300" as="targetPoint" />
            <Array as="points">
              <mxPoint x="-90" y="355" />
            </Array>
          </mxGeometry>
        </mxCell>
        <mxCell id="2yLdPPzyw9FvhpXeGLOf-15" value="" style="edgeStyle=elbowEdgeStyle;html=1;endArrow=none;elbow=vertical;exitX=0.75;exitY=0;exitDx=0;exitDy=0;exitPerimeter=0;entryX=0;entryY=0.5;entryDx=0;entryDy=0;entryPerimeter=0;" parent="1" source="ygKgCBzIEPj40k8lXBeH-29" target="2yLdPPzyw9FvhpXeGLOf-13" edge="1">
          <mxGeometry width="160" relative="1" as="geometry">
            <mxPoint x="-160" y="300" as="sourcePoint" />
            <mxPoint y="300" as="targetPoint" />
            <Array as="points">
              <mxPoint x="-260" y="355" />
            </Array>
          </mxGeometry>
        </mxCell>
        <mxCell id="2yLdPPzyw9FvhpXeGLOf-16" value="" style="edgeStyle=elbowEdgeStyle;html=1;endArrow=none;elbow=vertical;entryX=0.5;entryY=1;entryDx=0;entryDy=0;entryPerimeter=0;exitX=0.5;exitY=0;exitDx=0;exitDy=0;exitPerimeter=0;" parent="1" source="ygKgCBzIEPj40k8lXBeH-21" target="2yLdPPzyw9FvhpXeGLOf-3" edge="1">
          <mxGeometry width="160" relative="1" as="geometry">
            <mxPoint x="240" y="300" as="sourcePoint" />
            <mxPoint x="300" y="410" as="targetPoint" />
            <Array as="points">
              <mxPoint x="-40" y="380" />
              <mxPoint x="120" y="380" />
              <mxPoint x="170" y="400" />
              <mxPoint x="270" y="390" />
            </Array>
          </mxGeometry>
        </mxCell>
        <mxCell id="2yLdPPzyw9FvhpXeGLOf-17" value="Researchers" style="html=1;outlineConnect=0;whiteSpace=wrap;fillColor=#ffff99;shape=mxgraph.archimate3.application;appType=actor;archiType=square;" parent="1" vertex="1">
          <mxGeometry x="196.87" y="60" width="150" height="75" as="geometry" />
        </mxCell>
        <mxCell id="2yLdPPzyw9FvhpXeGLOf-19" value="External Data collectors" style="html=1;outlineConnect=0;whiteSpace=wrap;fillColor=#ffff99;shape=mxgraph.archimate3.application;appType=actor;archiType=square;" parent="1" vertex="1">
          <mxGeometry x="-400" y="70" width="150" height="75" as="geometry" />
        </mxCell>
        <mxCell id="2yLdPPzyw9FvhpXeGLOf-20" value="" style="edgeStyle=elbowEdgeStyle;html=1;endArrow=block;dashed=0;elbow=vertical;endFill=1;entryX=0.5;entryY=1;entryDx=0;entryDy=0;entryPerimeter=0;exitX=0.5;exitY=0;exitDx=0;exitDy=0;exitPerimeter=0;" parent="1" source="ygKgCBzIEPj40k8lXBeH-30" target="2yLdPPzyw9FvhpXeGLOf-19" edge="1">
          <mxGeometry width="160" relative="1" as="geometry">
            <mxPoint x="-150" y="300" as="sourcePoint" />
            <mxPoint x="10" y="300" as="targetPoint" />
          </mxGeometry>
        </mxCell>
        <mxCell id="2yLdPPzyw9FvhpXeGLOf-27" value="Mobile Station" style="text;html=1;strokeColor=none;fillColor=none;align=center;verticalAlign=middle;whiteSpace=wrap;rounded=0;labelBackgroundColor=none;" parent="1" vertex="1">
          <mxGeometry x="-150" y="30" width="90" height="20" as="geometry" />
        </mxCell>
        <mxCell id="2yLdPPzyw9FvhpXeGLOf-29" value="Home office" style="text;html=1;strokeColor=none;fillColor=none;align=center;verticalAlign=middle;whiteSpace=wrap;rounded=0;labelBackgroundColor=none;" parent="1" vertex="1">
          <mxGeometry x="-420" y="40" width="90" height="20" as="geometry" />
        </mxCell>
        <mxCell id="2yLdPPzyw9FvhpXeGLOf-31" value="Drone" style="text;html=1;strokeColor=none;fillColor=none;align=center;verticalAlign=middle;whiteSpace=wrap;rounded=0;labelBackgroundColor=none;" parent="1" vertex="1">
          <mxGeometry x="760" y="55" width="40" height="20" as="geometry" />
        </mxCell>
        <mxCell id="2yLdPPzyw9FvhpXeGLOf-33" value="Mobile Station server" style="html=1;outlineConnect=0;whiteSpace=wrap;fillColor=#99ffff;shape=mxgraph.archimate3.application;appType=comp;archiType=square;labelBackgroundColor=none;verticalAlign=bottom;" parent="1" vertex="1">
          <mxGeometry x="240" y="190" width="170" height="75.62" as="geometry" />
        </mxCell>
        <mxCell id="2yLdPPzyw9FvhpXeGLOf-34" value="" style="edgeStyle=orthogonalEdgeStyle;html=1;endArrow=block;endFill=0;dashed=1;exitX=0.25;exitY=0;exitDx=0;exitDy=0;exitPerimeter=0;" parent="1" source="2yLdPPzyw9FvhpXeGLOf-4" target="2yLdPPzyw9FvhpXeGLOf-33" edge="1">
          <mxGeometry width="160" relative="1" as="geometry">
            <mxPoint x="190" y="400" as="sourcePoint" />
            <mxPoint x="350" y="400" as="targetPoint" />
            <Array as="points">
              <mxPoint x="305" y="430" />
            </Array>
          </mxGeometry>
        </mxCell>
        <mxCell id="2yLdPPzyw9FvhpXeGLOf-39" value="" style="edgeStyle=elbowEdgeStyle;html=1;endArrow=open;elbow=vertical;endFill=1;entryX=0.75;entryY=1;entryDx=0;entryDy=0;entryPerimeter=0;" parent="1" source="2yLdPPzyw9FvhpXeGLOf-33" target="2yLdPPzyw9FvhpXeGLOf-17" edge="1">
          <mxGeometry width="160" relative="1" as="geometry">
            <mxPoint x="310" y="190" as="sourcePoint" />
            <mxPoint x="310" y="135" as="targetPoint" />
          </mxGeometry>
        </mxCell>
        <mxCell id="2liBNVBVdMS3deNnehmx-1" value="Database&lt;br&gt;MongoDB" style="html=1;outlineConnect=0;whiteSpace=wrap;fillColor=#AFFFAF;shape=mxgraph.archimate3.application;appType=sysSw;archiType=square;" parent="1" vertex="1">
          <mxGeometry x="-390" y="423.75" width="110" height="48.75" as="geometry" />
        </mxCell>
        <mxCell id="2liBNVBVdMS3deNnehmx-3" value="Database&lt;br&gt;MongoDB" style="html=1;outlineConnect=0;whiteSpace=wrap;fillColor=#AFFFAF;shape=mxgraph.archimate3.application;appType=sysSw;archiType=square;" parent="1" vertex="1">
          <mxGeometry x="236.87" y="465" width="110" height="36.25" as="geometry" />
        </mxCell>
        <mxCell id="2Lq3Pt6WfmT5US5sTp1G-1" value="Drone&lt;br&gt;(Linux)" style="html=1;outlineConnect=0;whiteSpace=wrap;fillColor=#AFFFAF;shape=mxgraph.archimate3.tech;techType=device;" parent="1" vertex="1">
          <mxGeometry x="890" y="415" width="170" height="95" as="geometry" />
        </mxCell>
        <mxCell id="2Lq3Pt6WfmT5US5sTp1G-5" value="Data collecting software,&lt;br&gt;jMAVsim" style="html=1;outlineConnect=0;whiteSpace=wrap;fillColor=#99ffff;shape=mxgraph.archimate3.application;appType=comp;archiType=square;" parent="1" vertex="1">
          <mxGeometry x="940" y="210" width="150" height="75" as="geometry" />
        </mxCell>
        <mxCell id="zqpS__3CMf22pfKgEl1M-1" value="" style="edgeStyle=elbowEdgeStyle;html=1;endArrow=block;elbow=vertical;endFill=0;dashed=1;exitX=0.75;exitY=0;exitDx=0;exitDy=0;exitPerimeter=0;entryX=0.5;entryY=1;entryDx=0;entryDy=0;entryPerimeter=0;" parent="1" source="2Lq3Pt6WfmT5US5sTp1G-1" target="2Lq3Pt6WfmT5US5sTp1G-5" edge="1">
          <mxGeometry width="160" relative="1" as="geometry">
            <mxPoint x="1212.5" y="386.25" as="sourcePoint" />
            <mxPoint x="1210" y="275" as="targetPoint" />
            <Array as="points">
              <mxPoint x="1050" y="360" />
              <mxPoint x="1130" y="360" />
              <mxPoint x="1140" y="360" />
              <mxPoint x="1150" y="340" />
              <mxPoint x="1210" y="370" />
              <mxPoint x="1210" y="300" />
              <mxPoint x="1235" y="320" />
            </Array>
          </mxGeometry>
        </mxCell>
        <mxCell id="UU45sLERAMf2Hrp41M-O-1" value="Drone Comm Server" style="html=1;outlineConnect=0;whiteSpace=wrap;fillColor=#99ffff;shape=mxgraph.archimate3.application;appType=comp;archiType=square;" parent="1" vertex="1">
          <mxGeometry x="540" y="230" width="150" height="75" as="geometry" />
        </mxCell>
        <mxCell id="UU45sLERAMf2Hrp41M-O-9" style="edgeStyle=orthogonalEdgeStyle;rounded=0;orthogonalLoop=1;jettySize=auto;html=1;exitX=0.5;exitY=0;exitDx=0;exitDy=0;exitPerimeter=0;entryX=0.5;entryY=1;entryDx=0;entryDy=0;entryPerimeter=0;dashed=1;endArrow=block;endFill=0;" parent="1" source="UU45sLERAMf2Hrp41M-O-2" target="UU45sLERAMf2Hrp41M-O-1" edge="1">
          <mxGeometry relative="1" as="geometry" />
        </mxCell>
        <mxCell id="UU45sLERAMf2Hrp41M-O-2" value="Laptop (data transfer)" style="html=1;outlineConnect=0;whiteSpace=wrap;fillColor=#AFFFAF;shape=mxgraph.archimate3.tech;techType=device;verticalAlign=bottom;" parent="1" vertex="1">
          <mxGeometry x="540" y="435.63" width="135" height="70" as="geometry" />
        </mxCell>
        <mxCell id="UU45sLERAMf2Hrp41M-O-3" value="UDP" style="html=1;outlineConnect=0;whiteSpace=wrap;fillColor=#AFFFAF;shape=mxgraph.archimate3.application;appType=netw;archiType=square;" parent="1" vertex="1">
          <mxGeometry x="410" y="339.37" width="75" height="31.25" as="geometry" />
        </mxCell>
        <mxCell id="UU45sLERAMf2Hrp41M-O-7" value="" style="endArrow=none;html=1;entryX=0;entryY=0.5;entryDx=0;entryDy=0;entryPerimeter=0;exitX=1;exitY=0.5;exitDx=0;exitDy=0;exitPerimeter=0;" parent="1" source="UU45sLERAMf2Hrp41M-O-2" target="ygKgCBzIEPj40k8lXBeH-26" edge="1">
          <mxGeometry width="50" height="50" relative="1" as="geometry">
            <mxPoint x="630" y="500" as="sourcePoint" />
            <mxPoint x="680" y="450" as="targetPoint" />
          </mxGeometry>
        </mxCell>
        <mxCell id="UU45sLERAMf2Hrp41M-O-10" value="" style="endArrow=none;html=1;exitX=1;exitY=0.5;exitDx=0;exitDy=0;exitPerimeter=0;entryX=0.5;entryY=1;entryDx=0;entryDy=0;entryPerimeter=0;" parent="1" source="2yLdPPzyw9FvhpXeGLOf-4" target="UU45sLERAMf2Hrp41M-O-3" edge="1">
          <mxGeometry width="50" height="50" relative="1" as="geometry">
            <mxPoint x="630" y="500" as="sourcePoint" />
            <mxPoint x="680" y="450" as="targetPoint" />
            <Array as="points">
              <mxPoint x="448" y="490" />
            </Array>
          </mxGeometry>
        </mxCell>
        <mxCell id="UU45sLERAMf2Hrp41M-O-11" value="" style="endArrow=none;html=1;exitX=1;exitY=0.5;exitDx=0;exitDy=0;exitPerimeter=0;entryX=0.25;entryY=0;entryDx=0;entryDy=0;entryPerimeter=0;" parent="1" source="UU45sLERAMf2Hrp41M-O-3" target="UU45sLERAMf2Hrp41M-O-2" edge="1">
          <mxGeometry width="50" height="50" relative="1" as="geometry">
            <mxPoint x="630" y="500" as="sourcePoint" />
            <mxPoint x="680" y="450" as="targetPoint" />
            <Array as="points">
              <mxPoint x="574" y="355" />
            </Array>
          </mxGeometry>
        </mxCell>
        <mxCell id="qcKM8Q5uUOp1ZYVYhcC7-1" value="Laptop (bluetooth server)" style="html=1;outlineConnect=0;whiteSpace=wrap;fillColor=#AFFFAF;shape=mxgraph.archimate3.tech;techType=device;" vertex="1" parent="1">
          <mxGeometry x="30" y="416.25" width="160" height="83.75" as="geometry" />
        </mxCell>
        <mxCell id="qcKM8Q5uUOp1ZYVYhcC7-2" value="Bluetooth server" style="html=1;outlineConnect=0;whiteSpace=wrap;fillColor=#99ffff;shape=mxgraph.archimate3.application;appType=comp;archiType=square;" vertex="1" parent="1">
          <mxGeometry x="20" y="200" width="150" height="75" as="geometry" />
        </mxCell>
        <mxCell id="qcKM8Q5uUOp1ZYVYhcC7-3" value="" style="edgeStyle=orthogonalEdgeStyle;html=1;endArrow=block;endFill=0;dashed=1;exitX=0.75;exitY=0;exitDx=0;exitDy=0;exitPerimeter=0;entryX=0.5;entryY=1;entryDx=0;entryDy=0;entryPerimeter=0;" edge="1" parent="1" source="qcKM8Q5uUOp1ZYVYhcC7-1" target="qcKM8Q5uUOp1ZYVYhcC7-2">
          <mxGeometry width="160" relative="1" as="geometry">
            <mxPoint x="262.5" y="440" as="sourcePoint" />
            <mxPoint x="315" y="275.6199999999999" as="targetPoint" />
          </mxGeometry>
        </mxCell>
        <mxCell id="qcKM8Q5uUOp1ZYVYhcC7-6" value="" style="endArrow=none;html=1;entryX=1;entryY=0;entryDx=0;entryDy=0;entryPerimeter=0;" edge="1" parent="1" target="qcKM8Q5uUOp1ZYVYhcC7-1">
          <mxGeometry width="50" height="50" relative="1" as="geometry">
            <mxPoint x="410" y="355" as="sourcePoint" />
            <mxPoint x="583.75" y="445.6300000000001" as="targetPoint" />
            <Array as="points">
              <mxPoint x="190" y="355" />
            </Array>
          </mxGeometry>
        </mxCell>
      </root>
    </mxGraphModel>
  </diagram>
</mxfile>
